<svg xmlns="http://www.w3.org/2000/svg" shape-rendering="geometricPrecision" text-rendering="geometricPrecision" image-rendering="optimizeQuality" fill-rule="evenodd" clip-rule="evenodd" viewBox="0 0 512 490.74"><path d="M373.04 440.14c-1.14.24-2.31.24-3.44 0h-93.1v33.58h97.87v-33.58h-1.33zM244.27 72.51h23.46c4.39 0 7.96 3.59 7.96 7.96v29.75h29.75c4.39 0 7.96 3.59 7.96 7.96v23.45c0 4.38-3.59 7.98-7.96 7.98h-29.75v29.06c0 4.39-3.59 7.96-7.96 7.96h-23.46c-4.39 0-7.97-3.59-7.97-7.96v-29.06h-29.75c-4.38 0-7.96-3.6-7.96-7.98v-23.46c0-4.39 3.59-7.96 7.96-7.96h29.75V80.47c0-4.39 3.58-7.96 7.97-7.96zM255.56 0c47.15 29.88 89.74 44.02 126.29 40.68 6.38 129.12-41.3 205.37-125.8 237.19-81.6-29.78-129.87-102.76-126.29-239.15 42.91 2.25 85.01-7.03 125.8-38.72zm.1 18.92c38.81 24.61 79.5 40.72 109.59 37.97 5.26 106.32-39.61 175.85-109.19 202.05-67.19-24.52-112.55-91.35-109.6-203.66 38.99 2.04 78.15-12.23 109.2-36.36zm21.06 404.2h91.31c7.35-7.3 15.36-14.88 23.52-22.6 17.13-16.21 35-33.12 53.39-54.29 21.01-24.19 23.25-32.57 29.6-56.28 1.2-4.46 2.54-9.46 4.3-15.67l10.9-38.37.14-.44c5.82-17.07 6.28-28.35 3.85-34.87-.75-2-1.72-3.32-2.82-4.03-.89-.58-2.02-.8-3.25-.68-2.86.28-6.06 2.1-8.98 5.27l-32.41 77.2c-.3.72-.7 1.38-1.15 1.97-1.93 3.45-4.51 6.85-7.84 10.04l-57.52 64.13c-3.12 3.49-8.48 3.78-11.97.66-3.48-3.12-3.78-8.48-.66-11.97l57.53-64.14c.23-.3.5-.58.78-.85 5.95-5.68 7.84-11.8 6.8-16.24-.33-1.39-.93-2.54-1.77-3.32-.78-.73-1.84-1.21-3.12-1.35-5.12-.53-12.69 3.23-21.89 14.13l-.02-.01c-.25.31-.53.6-.85.87l-22.29 19.68-.11.11c-24.15 22.82-34.49 28.24-53.42 38.14-3.95 2.07-8.31 4.35-13.66 7.27-2.11 1.15-4.2 2.58-6.25 4.12-2.18 1.65-4.23 3.37-6.23 5.05-9.98 8.43-15.23 15.26-18.25 22.81-3.12 7.83-4.26 17.38-5.79 30.47-.62 5.27-1.1 10.51-1.45 15.69-.17 2.56-.31 5.05-.42 7.5zm-41.44 0h-91.3c-7.35-7.3-15.36-14.88-23.52-22.6-17.14-16.21-35.01-33.12-53.4-54.29-21-24.19-23.25-32.57-29.6-56.28-1.2-4.46-2.54-9.46-4.3-15.67l-10.9-38.37-.14-.44c-5.82-17.07-6.28-28.35-3.85-34.87.75-2 1.73-3.32 2.82-4.03.89-.58 2.02-.8 3.26-.68 2.85.28 6.05 2.1 8.97 5.27l32.41 77.2c.3.72.7 1.38 1.16 1.97 1.92 3.45 4.51 6.85 7.84 10.04l57.51 64.13c3.12 3.49 8.48 3.78 11.97.66a8.468 8.468 0 0 0 .66-11.97l-57.52-64.14c-.24-.3-.51-.58-.79-.85-5.95-5.68-7.84-11.8-6.8-16.24.33-1.39.94-2.54 1.77-3.32.78-.73 1.84-1.21 3.12-1.35 5.12-.53 12.7 3.23 21.89 14.13l.02-.01c.25.31.54.6.85.87l22.29 19.68.12.11c24.14 22.82 34.49 28.24 53.42 38.14 3.94 2.07 8.3 4.35 13.66 7.27 2.1 1.15 4.19 2.58 6.24 4.12 2.18 1.65 4.23 3.37 6.23 5.05 9.98 8.43 15.23 15.26 18.25 22.81 3.13 7.83 4.26 17.38 5.79 30.47.62 5.27 1.1 10.51 1.45 15.69.17 2.56.31 5.05.42 7.5zm-96.32 17.02c1.14.24 2.31.24 3.44 0h93.1v33.58h-97.87v-33.58h1.33zm-16.26-14.1a8.44 8.44 0 0 0-2.1 5.59v50.6c0 4.7 3.81 8.51 8.52 8.51h114.89c4.7 0 8.52-3.81 8.52-8.51v-51.07c0-5.41-.36-11.25-.72-16.66-.37-5.54-.87-11.04-1.51-16.5-1.68-14.31-2.91-24.77-6.92-34.79-4.11-10.29-10.76-19.16-23.04-29.53-2.25-1.9-4.56-3.83-6.96-5.64-2.54-1.92-5.28-3.77-8.38-5.45-5-2.73-9.67-5.18-13.92-7.4-17.51-9.16-27.09-14.18-49.63-35.49-.17-.16-.36-.32-.54-.47l-21.75-19.19c-13.28-15.56-26.28-20.69-36.26-19.63h-.04c-4.86.51-9.05 2.41-12.37 5.32l-21.96-52.31-.03.01c-.32-.76-.75-1.48-1.3-2.14C41.13 184 33.41 179.74 26.01 179c-5.03-.49-9.91.58-14.16 3.34-4.05 2.63-7.37 6.72-9.47 12.34-3.65 9.79-3.57 24.98 3.59 46.04l10.83 38.15c1.57 5.52 2.98 10.78 4.23 15.47 7.09 26.47 9.61 35.83 33.21 63 18.69 21.53 37.02 38.87 54.57 55.48 4.66 4.4 9.25 8.75 13.89 13.22zm266.61 0a8.482 8.482 0 0 1 2.09 5.59v50.6c0 4.7-3.81 8.51-8.51 8.51h-114.9c-4.7 0-8.52-3.81-8.52-8.51v-51.07c0-.3.02-.61.05-.9A332.554 332.554 0 0 1 261.7 398c1.68-14.31 2.92-24.77 6.92-34.79 4.11-10.29 10.76-19.16 23.05-29.53 2.24-1.9 4.55-3.83 6.95-5.64 2.54-1.92 5.29-3.77 8.38-5.45 5-2.73 9.67-5.18 13.92-7.4 17.51-9.16 27.09-14.18 49.63-35.49.18-.16.36-.32.54-.47l21.75-19.19c13.28-15.56 26.28-20.69 36.27-19.63h.03c4.86.51 9.05 2.41 12.37 5.32l21.97-52.31.03.01c.31-.76.74-1.48 1.29-2.14 6.07-7.29 13.79-11.55 21.19-12.29 5.03-.49 9.92.58 14.16 3.34 4.06 2.63 7.37 6.72 9.47 12.34 3.66 9.79 3.57 24.98-3.58 46.04l-10.84 38.15c-1.56 5.52-2.98 10.78-4.23 15.47-7.09 26.47-9.6 35.83-33.2 63-18.7 21.53-37.03 38.87-54.58 55.48-4.65 4.4-9.25 8.75-13.88 13.22z"/></svg>